<?xml version="1.0" encoding="iso-8859-1"?>
<!-- Generator: Adobe Illustrator 19.0.0, SVG Export Plug-In . SVG Version: 6.00 Build 0)  -->
<svg version="1.1" id="Capa_1" xmlns="http://www.w3.org/2000/svg" xmlns:xlink="http://www.w3.org/1999/xlink" x="0px" y="0px"
	 viewBox="0 0 512 512" style="enable-background:new 0 0 512 512;" xml:space="preserve">
<circle style="fill:#FFE17D;" cx="256.009" cy="256" r="248.489"/>
<path style="fill:#FFD164;" d="M292.085,468.414C154.85,468.414,43.6,357.164,43.6,219.931c0-59.43,20.889-113.963,55.691-156.723
	C43.311,108.77,7.53,178.196,7.53,256.001c0,137.234,111.25,248.485,248.485,248.485c77.806,0,147.232-35.782,192.794-91.762
	C406.049,447.525,351.514,468.414,292.085,468.414z"/>
<path style="fill:#9C6846;" d="M255.957,400.311L255.957,400.311c-22.135,0-40.078-17.944-40.078-40.078v-24.047
	c0-22.135,17.944-40.078,40.078-40.078l0,0c22.135,0,40.078,17.944,40.078,40.078v24.047
	C296.035,382.367,278.092,400.311,255.957,400.311z"/>
<path style="fill:#FFFFFF;" d="M216.689,328.141h78.535c-3.725-18.278-19.888-32.034-39.268-32.034l0,0
	C236.577,296.108,220.414,309.863,216.689,328.141z"/>
<path style="fill:#7D5046;" d="M215.879,336.186v16.002h80.157v-16.002c0-2.756-0.281-5.445-0.811-8.045h-78.536
	C216.16,330.741,215.879,333.43,215.879,336.186z"/>
<path style="fill:#A5CDFF;" d="M142.838,247.323c-5.086,30.24-19.287,30.861-23.037,65.441c-4.009,36.967,11.924,38.78,7.916,75.747
	c-3.715,34.252-17.639,35.299-22.857,64.66c21.26,16.323,45.231,29.26,71.127,38.069c1.316-35.977,15.902-37.839,15.902-77.199
	c0-41.215-16.031-41.215-16.031-82.43c0-41.187,16.031-41.187,16.031-82.373l-24.076,6.763L142.838,247.323z"/>
<path style="fill:#8CB4EB;" d="M187.493,445.33c-22.975-10.68-44.072-24.717-62.586-41.564
	c-5.537,20.193-15.745,25.196-20.047,49.404l0,0c21.26,16.323,45.231,29.26,71.127,38.068
	C176.829,468.238,183.083,459.156,187.493,445.33z"/>
<path style="fill:#A5CDFF;" d="M392.227,312.764c-3.75-34.581-17.952-35.201-23.037-65.441l-24.975,8.678l-24.076-6.763
	c0,41.186,16.031,41.186,16.031,82.373c0,41.215-16.031,41.215-16.031,82.43c0,39.36,14.586,41.222,15.902,77.199
	c25.896-8.808,49.868-21.746,71.127-38.069c-5.218-29.361-19.142-30.408-22.857-64.66
	C380.303,351.544,396.236,349.73,392.227,312.764z"/>
<path style="fill:#8CB4EB;" d="M336.04,491.238c25.896-8.808,49.868-21.746,71.127-38.069c-0.787-4.43-1.789-8.161-2.908-11.513
	c-22.43,11.378-46.821,19.424-72.529,23.553C333.901,472.001,335.627,479.933,336.04,491.238z"/>
<path d="M208.415,336.171v24.051c0,26.239,21.347,47.585,47.585,47.585s47.585-21.347,47.585-47.585v-24.051
	c0-26.239-21.347-47.585-47.585-47.585C229.761,288.587,208.415,309.932,208.415,336.171z M288.585,360.222
	c0,17.968-14.618,32.585-32.585,32.585l0,0c-17.967,0-32.585-14.618-32.585-32.585v-24.051c0-0.183,0.011-0.364,0.014-0.546h65.143
	c0.003,0.182,0.014,0.363,0.014,0.546v24.051H288.585z M284.631,320.625h-57.262c5.529-10.142,16.29-17.039,28.631-17.039
	C268.342,303.586,279.102,310.483,284.631,320.625z"/>
<path d="M15.109,248.714c1.833-61.604,26.857-119.542,70.459-163.145C129.171,41.966,187.11,16.943,248.713,15.11
	c61.338-1.827,120.4,19.43,166.327,59.851c3.109,2.737,7.848,2.435,10.585-0.675c2.737-3.109,2.435-7.848-0.675-10.585
	C376.159,20.759,313.406-1.822,248.267,0.116c-65.44,1.948-126.988,28.529-173.305,74.846
	C28.644,121.28,2.063,182.827,0.115,248.268C-1.824,313.414,20.757,376.161,63.7,424.951c1.482,1.685,3.552,2.545,5.633,2.545
	c1.76,0,3.527-0.616,4.952-1.87c3.109-2.737,3.412-7.476,0.675-10.585C34.538,369.115,13.283,310.046,15.109,248.714z"/>
<path d="M448.3,87.052c-2.736-3.109-7.476-3.412-10.585-0.675c-3.109,2.737-3.412,7.476-0.675,10.585
	c40.421,45.925,61.677,104.994,59.852,166.326c-1.833,61.603-26.856,119.542-70.459,163.145c-4.379,4.379-8.91,8.562-13.568,12.562
	c-2.74-9.913-6.556-16.481-10.026-22.451c-4.719-8.12-9.177-15.789-11.007-32.259c-1.83-16.47,0.835-24.931,3.658-33.888
	c3.018-9.58,6.438-20.437,4.259-40.052c-2.178-19.604-7.898-29.44-12.946-38.118c-3.68-6.327-7.173-12.353-9.405-22.4
	c1.685-1.607,3.293-3.329,4.789-5.19c2.595-3.229,2.082-7.949-1.147-10.544c-3.229-2.596-7.95-2.082-10.544,1.147
	c-6.759,8.409-16.317,13.232-26.222,13.232c-9.905,0-19.463-4.823-26.223-13.233c-2.595-3.229-7.315-3.743-10.544-1.147
	c-3.229,2.595-3.742,7.316-1.147,10.544c1.951,2.427,4.082,4.633,6.349,6.625c0.27,20.03,4.474,30.484,8.544,40.603
	c3.844,9.556,7.475,18.582,7.475,37.059c0,18.492-3.631,27.525-7.476,37.088c-4.208,10.466-8.558,21.289-8.558,42.683
	s4.351,32.217,8.558,42.683c3.657,9.097,7.114,17.733,7.443,34.468c-20.972,6.612-42.944,10.378-65.408,11.047
	c-27.4,0.818-54.343-2.985-79.868-11.033c0.327-16.744,3.785-25.382,7.444-34.482c4.208-10.466,8.558-21.289,8.558-42.683
	s-4.351-32.217-8.558-42.683c-3.845-9.563-7.476-18.596-7.476-37.088c0-18.477,3.631-27.503,7.475-37.059
	c4.071-10.119,8.275-20.573,8.545-40.603c2.266-1.993,4.397-4.198,6.348-6.625c2.595-3.229,2.082-7.949-1.147-10.544
	c-3.229-2.596-7.95-2.082-10.544,1.147c-6.759,8.409-16.317,13.232-26.223,13.232c-9.905,0-19.462-4.823-26.222-13.233
	c-2.596-3.229-7.315-3.743-10.544-1.147c-3.229,2.595-3.742,7.316-1.147,10.544c1.496,1.861,3.104,3.583,4.789,5.19
	c-2.231,10.048-5.725,16.074-9.405,22.401c-5.047,8.678-10.768,18.513-12.946,38.117c-2.179,19.615,1.241,30.473,4.259,40.052
	c2.822,8.958,5.488,17.418,3.658,33.888c-1.83,16.469-6.288,24.139-11.008,32.259c-3.472,5.973-7.289,12.544-10.029,22.463
	c-0.762-0.655-1.531-1.3-2.287-1.965c-3.108-2.736-7.848-2.435-10.585,0.675c-2.737,3.109-2.435,7.848,0.675,10.585
	c46.854,41.239,106.579,63.7,168.941,63.7c2.576,0,5.158-0.039,7.742-0.116c65.441-1.948,126.988-28.529,173.305-74.846
	c46.318-46.317,72.899-107.864,74.847-173.305C513.823,198.588,491.242,135.84,448.3,87.052z M122.245,424.081
	c5.047-8.683,10.768-18.525,12.947-38.14s-1.241-30.473-4.259-40.052c-2.822-8.958-5.488-17.418-3.658-33.888
	c1.829-16.457,6.286-24.12,11.004-32.233c3.275-5.632,6.875-11.828,9.573-20.862c6.253,2.968,13.043,4.565,19.99,4.565
	c5.506,0,10.915-0.999,16.036-2.889c-1.148,11.273-3.973,18.331-6.931,25.684c-4.208,10.46-8.559,21.276-8.559,42.657
	c0,21.394,4.351,32.217,8.558,42.683c3.845,9.563,7.476,18.596,7.476,37.088c0,18.491-3.631,27.525-7.476,37.088
	c-3.662,9.108-7.43,18.49-8.347,34.872c-19.988-7.778-38.933-18.258-56.35-31.24C114.427,437.552,118.231,430.987,122.245,424.081z
	 M335.169,445.783c-3.844-9.563-7.476-18.597-7.476-37.088c0-18.492,3.631-27.525,7.476-37.088
	c4.208-10.466,8.558-21.289,8.558-42.683c0-21.381-4.351-32.197-8.559-42.657c-2.958-7.353-5.782-14.411-6.931-25.684
	c5.121,1.89,10.53,2.889,16.035,2.889c6.947,0,13.736-1.597,19.99-4.565c2.698,9.033,6.298,15.229,9.573,20.862
	c4.719,8.113,9.175,15.776,11.004,32.233c1.83,16.47-0.836,24.931-3.658,33.888c-3.018,9.58-6.439,20.437-4.259,40.052
	c2.179,19.615,7.9,29.457,12.947,38.14c4.013,6.905,7.817,13.469,9.995,25.327c-17.379,12.958-36.326,23.429-56.35,31.222
	C342.595,464.264,338.828,454.887,335.169,445.783z"/>
<path d="M180.55,169.094l-64.137,32.068c-3.705,1.853-5.207,6.357-3.354,10.062c1.314,2.628,3.962,4.148,6.714,4.148
	c1.127,0,2.271-0.255,3.348-0.793l64.137-32.068c3.705-1.853,5.207-6.357,3.354-10.062
	C188.76,168.743,184.255,167.241,180.55,169.094z"/>
<path d="M331.564,169.094c-3.705-1.852-8.209-0.351-10.062,3.354c-1.853,3.705-0.351,8.21,3.354,10.062l64.137,32.068
	c1.077,0.538,2.221,0.793,3.348,0.793c2.751,0,5.4-1.52,6.714-4.148c1.853-3.705,0.351-8.21-3.354-10.062L331.564,169.094z"/>
<g>
</g>
<g>
</g>
<g>
</g>
<g>
</g>
<g>
</g>
<g>
</g>
<g>
</g>
<g>
</g>
<g>
</g>
<g>
</g>
<g>
</g>
<g>
</g>
<g>
</g>
<g>
</g>
<g>
</g>
</svg>
