<?xml version="1.0" encoding="iso-8859-1"?>
<!-- Generator: Adobe Illustrator 19.0.0, SVG Export Plug-In . SVG Version: 6.00 Build 0)  -->
<svg version="1.1" id="Capa_1" xmlns="http://www.w3.org/2000/svg" xmlns:xlink="http://www.w3.org/1999/xlink" x="0px" y="0px"
	 viewBox="0 0 512 512" style="enable-background:new 0 0 512 512;" xml:space="preserve">
<circle style="fill:#FFE17D;" cx="255.999" cy="255.999" r="248.499"/>
<path style="fill:#FFD164;" d="M292.073,468.425c-137.242,0-248.499-111.257-248.499-248.499c0-59.433,20.891-113.97,55.695-156.732
	C43.284,108.759,7.501,178.19,7.501,256c0,137.241,111.256,248.499,248.499,248.499c77.81,0,147.241-35.784,192.805-91.768
	C406.044,447.535,351.505,468.425,292.073,468.425z"/>
<path style="fill:#9C6846;" d="M255.803,378.935c45.238,0.043,88.414,4.949,128.02,13.782c5.13,1.144,9.557-3.817,7.98-8.994
	c-18.213-59.763-72.099-103.156-135.907-103.216s-117.776,43.231-136.102,102.958c-1.588,5.174,2.83,10.144,7.963,9.009
	C167.38,383.716,210.566,378.892,255.803,378.935z"/>
<path style="fill:#7D5046;" d="M255.962,340.451c43.936,0.064,86.422,7.235,126.747,20.473
	c-23.607-47.675-71.457-80.367-126.813-80.42c-55.335-0.053-103.229,32.524-126.936,80.124
	C169.37,347.46,211.943,340.387,255.962,340.451z"/>
<path style="fill:#FFFFFF;" d="M148.751,330.693c32.318-12.013,68.671-18.77,107.148-18.734
	c38.439,0.036,74.745,6.848,107.014,18.899c-26.097-30.791-64.301-50.313-107.017-50.353
	C213.163,280.464,174.907,299.929,148.751,330.693z"/>
<path d="M115.797,395.573c3.485,3.775,8.545,5.372,13.535,4.269c40.126-8.869,82.457-13.364,125.838-13.364c0.197,0,0.4,0,0.597,0
	c43.589,0.042,86.12,4.619,126.411,13.604c1.049,0.234,2.102,0.349,3.142,0.349c3.906,0,7.643-1.615,10.4-4.591
	c3.576-3.86,4.789-9.191,3.245-14.26c-9.509-31.201-27.992-58.088-53.451-77.754c-26.034-20.111-57.031-30.757-89.638-30.788
	c-0.048,0-0.095,0-0.143,0c-32.556,0-63.521,10.586-89.555,30.618c-25.496,19.618-44.03,46.47-53.598,77.653
	C111.026,386.373,112.228,391.706,115.797,395.573z M255.861,288.037c28.441,0.027,55.514,9.085,78.485,26.177
	c-24.973-6.356-51.586-9.694-78.47-9.72h-0.314c-26.811,0-53.352,3.295-78.267,9.594c22.976-17.039,50.03-26.052,78.438-26.052
	C255.774,288.037,255.82,288.037,255.861,288.037z M152.916,337.333c31.223-11.668,66.655-17.839,102.644-17.839h0.3
	c36.058,0.035,71.56,6.264,102.823,18.002c11.449,14.005,20.283,30.281,25.703,47.71c-41.044-9.068-84.305-13.687-128.605-13.729
	c-0.205,0-0.406,0-0.61,0c-44.088,0-87.149,4.536-128.02,13.485C132.597,367.56,141.452,351.311,152.916,337.333z"/>
<path d="M15.108,248.713c1.833-61.604,26.857-119.542,70.459-163.145c43.603-43.603,101.542-68.626,163.145-70.459
	c61.338-1.829,120.4,19.43,166.327,59.852c3.109,2.737,7.848,2.436,10.585-0.675c2.737-3.109,2.435-7.848-0.675-10.585
	c-48.79-42.943-111.534-65.52-176.683-63.585c-65.44,1.948-126.988,28.529-173.305,74.847
	C28.644,121.278,2.063,182.826,0.115,248.267C-1.824,313.413,20.757,376.16,63.7,424.95c1.482,1.685,3.552,2.545,5.633,2.545
	c1.76,0,3.527-0.616,4.952-1.87c3.109-2.737,3.412-7.476,0.675-10.585C34.538,369.114,13.283,310.044,15.108,248.713z"/>
<path d="M448.3,87.05c-2.736-3.109-7.476-3.411-10.585-0.675c-3.109,2.737-3.412,7.476-0.675,10.585
	c40.421,45.926,61.677,104.994,59.852,166.327c-1.833,61.603-26.856,119.542-70.459,163.145s-101.541,68.626-163.145,70.459
	c-61.336,1.835-120.401-19.43-166.327-59.851c-3.108-2.736-7.848-2.435-10.585,0.675c-2.737,3.109-2.435,7.848,0.675,10.585
	c46.854,41.239,106.579,63.7,168.941,63.7c2.576,0,5.158-0.039,7.742-0.116c65.441-1.948,126.988-28.529,173.305-74.846
	c46.318-46.317,72.899-107.865,74.847-173.305C513.823,198.587,491.242,135.839,448.3,87.05z"/>
<path d="M191.118,212.806c-4.514,9.8-12.613,16.8-22.222,19.207c-9.608,2.407-20.051,0.05-28.651-6.466
	c-3.302-2.501-8.006-1.853-10.507,1.449c-2.501,3.302-1.853,8.006,1.449,10.507c9.033,6.844,19.606,10.436,30.171,10.436
	c3.752,0,7.504-0.454,11.184-1.375c14.04-3.517,25.777-13.534,32.202-27.482c1.733-3.763,0.088-8.217-3.674-9.95
	C197.304,207.397,192.851,209.044,191.118,212.806z"/>
<path d="M371.697,225.547c-8.6,6.516-19.042,8.874-28.651,6.466c-9.609-2.407-17.709-9.407-22.223-19.207
	c-1.733-3.762-6.188-5.408-9.95-3.674c-3.762,1.732-5.407,6.187-3.674,9.95c6.424,13.949,18.162,23.966,32.202,27.482
	c3.681,0.922,7.431,1.375,11.184,1.375c10.563,0,21.138-3.592,30.17-10.436c3.301-2.501,3.95-7.206,1.449-10.507
	C379.702,223.693,374.997,223.045,371.697,225.547z"/>
<path d="M213.181,138.513c-2.913-2.932-7.656-2.946-10.598-0.043c-0.231,0.228-23.726,22.989-76.945,38.194
	c-3.982,1.138-6.289,5.289-5.151,9.272c0.941,3.294,3.944,5.441,7.208,5.441c0.682,0,1.376-0.094,2.064-0.291
	c57.329-16.379,82.375-40.955,83.414-41.993C216.095,146.171,216.094,141.444,213.181,138.513z"/>
<path d="M391.455,185.936c1.138-3.983-1.168-8.134-5.151-9.272c-53.219-15.205-76.714-37.966-76.928-38.177
	c-2.929-2.929-7.678-2.929-10.606,0c-2.929,2.929-2.929,7.678,0,10.606c1.038,1.038,26.084,25.614,83.413,41.993
	c0.689,0.197,1.382,0.291,2.064,0.291C387.51,191.377,390.514,189.229,391.455,185.936z"/>
<g>
</g>
<g>
</g>
<g>
</g>
<g>
</g>
<g>
</g>
<g>
</g>
<g>
</g>
<g>
</g>
<g>
</g>
<g>
</g>
<g>
</g>
<g>
</g>
<g>
</g>
<g>
</g>
<g>
</g>
</svg>
